M48
;DRILL file {KiCad (2015-08-26 BZR 6129, Git 2e41367)-product} date 17-08-10 10:09:06 AM
;FORMAT={-:-/ absolute / metric / decimal}
FMAT,2
METRIC,TZ
T1C0.300
T2C0.700
T3C1.000
T4C1.020
T5C1.100
T6C2.400
T7C3.000
%
G90
G05
M71
T1
X-37.5Y31.5
X-37.5Y-7.5
X-32.Y2.
X-30.25Y-13.
X-28.25Y13.
X-28.Y23.25
X-28.Y22.5
X-28.Y21.75
X-28.Y14.5
X-28.Y-6.
X-27.5Y14.
X-27.Y-12.
X-26.Y-1.5
X-25.5Y-5.25
X-25.175Y10.5
X-24.5Y-2.75
X-24.5Y-5.25
X-24.Y0.5
X-24.Y-13.
X-23.905Y11.
X-23.5Y26.75
X-23.5Y-5.25
X-23.Y6.75
X-22.635Y12.
X-22.5Y-5.25
X-22.25Y6.25
X-21.5Y6.75
X-21.365Y12.5
X-21.Y-12.
X-20.Y-8.
X-19.75Y0.5
X-19.75Y-1.5
X-18.5Y6.5
X-17.75Y-13.
X-17.25Y1.
X-16.75Y0.25
X-15.75Y0.5
X-15.5Y14.
X-15.5Y13.25
X-15.5Y9.5
X-15.5Y7.5
X-14.Y23.25
X-14.Y22.5
X-14.Y21.75
X-13.5Y14.
X-13.5Y13.25
X-13.Y-5.25
X-11.175Y10.5
X-9.905Y11.
X-9.25Y26.25
X-8.635Y12.
X-7.365Y12.5
X-5.25Y6.25
X-1.5Y14.
X-1.5Y13.25
X-1.5Y9.5
X-1.5Y7.5
X-0.75Y15.75
X-0.5Y-1.
X-0.25Y16.25
X-0.25Y15.25
X0.Y23.25
X0.Y22.5
X0.Y21.75
X0.Y-7.75
X0.25Y15.75
X1.25Y6.25
X1.55Y13.25
X2.825Y10.5
X4.095Y11.
X5.365Y12.
X6.635Y12.5
X10.5Y-6.
X12.5Y14.
X12.5Y13.25
X12.5Y9.5
X12.5Y7.5
X13.Y1.
X14.Y23.25
X14.Y22.5
X14.Y21.75
X14.5Y14.
X14.5Y13.25
X16.825Y10.5
X18.095Y11.
X18.75Y26.25
X19.365Y12.
X20.635Y12.5
X22.Y7.25
X26.5Y14.
X26.5Y13.25
X27.75Y8.5
X30.Y27.25
X30.Y26.5
X30.Y25.75
X31.25Y5.
X31.25Y4.25
X31.25Y3.5
X31.5Y9.5
X37.5Y31.5
X37.5Y-6.
T2
X-34.54Y-2.
X-29.46Y-2.
X-5.5Y-1.
X-3.5Y-1.
X17.Y5.
X17.Y3.
T3
X-34.29Y-6.35
X-31.75Y-6.35
X-27.94Y6.35
X-25.4Y6.35
X-15.25Y-6.75
X-15.25Y-13.25
X-15.24Y5.08
X-12.7Y5.08
X-10.75Y-6.75
X-10.75Y-13.25
X-8.89Y-1.27
X-8.89Y-3.81
X-6.35Y-8.89
X-6.35Y-12.7
X-5.75Y-5.5
X-3.81Y-8.89
X-3.81Y-12.7
X-1.27Y-8.89
X-1.27Y-12.7
X1.25Y-5.5
X1.27Y-8.89
X1.27Y-12.7
X3.81Y-8.89
X3.81Y-12.7
X6.35Y-8.89
X6.35Y-12.7
X18.5Y-1.75
X18.5Y-5.25
X25.4Y6.35
X27.94Y6.35
T4
X-28.Y33.08
X-28.Y30.08
X-25.Y33.08
X-25.Y30.08
X-22.Y33.08
X-22.Y30.08
X-19.Y33.08
X-19.Y30.08
X-16.Y33.08
X-16.Y30.08
X-13.Y33.08
X-13.Y30.08
X-10.Y33.08
X-10.Y30.08
X-7.Y33.08
X-7.Y30.08
X-4.Y33.08
X-4.Y30.08
X4.Y33.08
X4.Y30.08
X7.Y33.08
X7.Y30.08
X9.54Y3.54
X9.54Y1.
X9.54Y-1.54
X10.Y33.08
X10.Y30.08
X13.Y33.08
X13.Y30.08
X16.Y33.08
X16.Y30.08
X19.Y33.08
X19.Y30.08
X22.Y33.08
X22.Y30.08
X25.Y33.08
X25.Y30.08
X28.Y33.08
X28.Y30.08
T5
X-35.56Y26.67
X-35.56Y24.13
X-35.56Y21.59
X-35.56Y19.05
X-35.56Y16.51
X-35.56Y13.97
X-35.56Y11.43
X-35.56Y8.89
X-33.02Y26.67
X-33.02Y24.13
X-33.02Y21.59
X-33.02Y19.05
X-33.02Y16.51
X-33.02Y13.97
X-33.02Y11.43
X-33.02Y8.89
X33.02Y26.67
X33.02Y24.13
X33.02Y21.59
X33.02Y19.05
X33.02Y16.51
X33.02Y13.97
X33.02Y11.43
X33.02Y8.89
X35.56Y26.67
X35.56Y24.13
X35.56Y21.59
X35.56Y19.05
X35.56Y16.51
X35.56Y13.97
X35.56Y11.43
X35.56Y8.89
T6
X25.6Y-2.
X28.6Y2.8
X31.6Y-2.
T7
X-35.Y36.
X-35.Y-11.
X-25.85Y37.4
X-6.15Y37.4
X6.15Y37.4
X25.85Y37.4
X35.Y36.
X35.Y-11.
T0
M30
