G04 #@! TF.FileFunction,Soldermask,Bot*
%FSLAX46Y46*%
G04 Gerber Fmt 4.6, Leading zero omitted, Abs format (unit mm)*
G04 Created by KiCad (PCBNEW (2015-08-26 BZR 6129, Git 2e41367)-product) date 17-08-10 10:08:59 AM*
%MOMM*%
G01*
G04 APERTURE LIST*
%ADD10C,0.100000*%
%ADD11R,2.190000X2.190000*%
%ADD12C,2.190000*%
%ADD13O,3.400000X2.400000*%
%ADD14C,6.000000*%
%ADD15R,2.400000X2.400000*%
%ADD16C,2.400000*%
%ADD17O,2.300000X2.400000*%
%ADD18C,2.100000*%
%ADD19O,1.900000X2.900000*%
%ADD20C,3.400000*%
%ADD21R,2.100000X2.100000*%
G04 APERTURE END LIST*
D10*
D11*
X33020000Y26670000D03*
D12*
X35560000Y26670000D03*
X33020000Y24130000D03*
X35560000Y24130000D03*
X33020000Y21590000D03*
X35560000Y21590000D03*
X33020000Y19050000D03*
X35560000Y19050000D03*
X33020000Y16510000D03*
X35560000Y16510000D03*
X33020000Y13970000D03*
X35560000Y13970000D03*
X33020000Y11430000D03*
X35560000Y11430000D03*
X33020000Y8890000D03*
X35560000Y8890000D03*
D11*
X-35560000Y26670000D03*
D12*
X-33020000Y26670000D03*
X-35560000Y24130000D03*
X-33020000Y24130000D03*
X-35560000Y21590000D03*
X-33020000Y21590000D03*
X-35560000Y19050000D03*
X-33020000Y19050000D03*
X-35560000Y16510000D03*
X-33020000Y16510000D03*
X-35560000Y13970000D03*
X-33020000Y13970000D03*
X-35560000Y11430000D03*
X-33020000Y11430000D03*
X-35560000Y8890000D03*
X-33020000Y8890000D03*
D13*
X9540000Y-1540000D03*
X9540000Y1000000D03*
X9540000Y3540000D03*
D14*
X-35000000Y36000000D03*
X35000000Y36000000D03*
X-35000000Y-11000000D03*
X35000000Y-11000000D03*
D15*
X6350000Y-12700000D03*
D16*
X3810000Y-12700000D03*
X1270000Y-12700000D03*
X-1270000Y-12700000D03*
X-3810000Y-12700000D03*
X-6350000Y-12700000D03*
D15*
X6350000Y-8890000D03*
D16*
X3810000Y-8890000D03*
D17*
X1270000Y-8890000D03*
X-1270000Y-8890000D03*
D16*
X-3810000Y-8890000D03*
X-6350000Y-8890000D03*
D18*
X-34540000Y-2000000D03*
X-29460000Y-2000000D03*
D12*
X25400000Y6350000D03*
X27940000Y6350000D03*
X-27940000Y6350000D03*
X-25400000Y6350000D03*
D19*
X-10750000Y-6750000D03*
X-15250000Y-6750000D03*
X-15250000Y-13250000D03*
X-10750000Y-13250000D03*
D20*
X25600000Y-2000000D03*
X31600000Y-2000000D03*
X28600000Y2800000D03*
D16*
X18500000Y-1750000D03*
D15*
X18500000Y-5250000D03*
D18*
X17000000Y3000000D03*
D21*
X17000000Y5000000D03*
D12*
X-8890000Y-3810000D03*
X-8890000Y-1270000D03*
X-15240000Y5080000D03*
X-12700000Y5080000D03*
X-34290000Y-6350000D03*
X-31750000Y-6350000D03*
D15*
X4000000Y33080000D03*
D16*
X7000000Y33080000D03*
X10000000Y33080000D03*
X13000000Y33080000D03*
X16000000Y33080000D03*
X19000000Y33080000D03*
X22000000Y33080000D03*
X25000000Y33080000D03*
X28000000Y33080000D03*
X4000000Y30080000D03*
D20*
X6150000Y37400000D03*
X25850000Y37400000D03*
D16*
X7000000Y30080000D03*
X10000000Y30080000D03*
X13000000Y30080000D03*
X16000000Y30080000D03*
X19000000Y30080000D03*
X22000000Y30080000D03*
X25000000Y30080000D03*
X28000000Y30080000D03*
D15*
X-28000000Y33080000D03*
D16*
X-25000000Y33080000D03*
X-22000000Y33080000D03*
X-19000000Y33080000D03*
X-16000000Y33080000D03*
X-13000000Y33080000D03*
X-10000000Y33080000D03*
X-7000000Y33080000D03*
X-4000000Y33080000D03*
X-28000000Y30080000D03*
D20*
X-25850000Y37400000D03*
X-6150000Y37400000D03*
D16*
X-25000000Y30080000D03*
X-22000000Y30080000D03*
X-19000000Y30080000D03*
X-16000000Y30080000D03*
X-13000000Y30080000D03*
X-10000000Y30080000D03*
X-7000000Y30080000D03*
X-4000000Y30080000D03*
X-5750000Y-5500000D03*
X1250000Y-5500000D03*
D18*
X-3500000Y-1000000D03*
D21*
X-5500000Y-1000000D03*
M02*
