G04 #@! TF.FileFunction,Paste,Top*
%FSLAX46Y46*%
G04 Gerber Fmt 4.6, Leading zero omitted, Abs format (unit mm)*
G04 Created by KiCad (PCBNEW (2015-08-26 BZR 6129, Git 2e41367)-product) date 17-08-10 10:08:59 AM*
%MOMM*%
G01*
G04 APERTURE LIST*
%ADD10C,0.100000*%
%ADD11R,1.300000X0.900000*%
%ADD12R,0.600000X2.000000*%
%ADD13R,2.000000X0.600000*%
%ADD14R,0.900000X1.300000*%
%ADD15R,2.300000X5.100000*%
%ADD16R,1.780000X3.500000*%
%ADD17R,0.910000X1.220000*%
G04 APERTURE END LIST*
D10*
D11*
X26500000Y10550000D03*
X26500000Y8450000D03*
X-1500000Y10550000D03*
X-1500000Y8450000D03*
D12*
X24445000Y14100000D03*
X23175000Y14100000D03*
X21905000Y14100000D03*
X20635000Y14100000D03*
X19365000Y14100000D03*
X18095000Y14100000D03*
X16825000Y14100000D03*
X15555000Y14100000D03*
X15555000Y8900000D03*
X16825000Y8900000D03*
X18095000Y8900000D03*
X19365000Y8900000D03*
X20635000Y8900000D03*
X21905000Y8900000D03*
X23175000Y8900000D03*
X24445000Y8900000D03*
D13*
X16000000Y27580000D03*
X16000000Y26310000D03*
X16000000Y25040000D03*
X16000000Y23770000D03*
X16000000Y22500000D03*
X16000000Y21230000D03*
X16000000Y19960000D03*
X16000000Y18690000D03*
X16000000Y17420000D03*
X26000000Y17420000D03*
X26000000Y18690000D03*
X26000000Y19960000D03*
X26000000Y21230000D03*
X26000000Y22500000D03*
X26000000Y23770000D03*
X26000000Y25040000D03*
X26000000Y26310000D03*
X26000000Y27580000D03*
D12*
X10445000Y14100000D03*
X9175000Y14100000D03*
X7905000Y14100000D03*
X6635000Y14100000D03*
X5365000Y14100000D03*
X4095000Y14100000D03*
X2825000Y14100000D03*
X1555000Y14100000D03*
X1555000Y8900000D03*
X2825000Y8900000D03*
X4095000Y8900000D03*
X5365000Y8900000D03*
X6635000Y8900000D03*
X7905000Y8900000D03*
X9175000Y8900000D03*
X10445000Y8900000D03*
D13*
X2000000Y27580000D03*
X2000000Y26310000D03*
X2000000Y25040000D03*
X2000000Y23770000D03*
X2000000Y22500000D03*
X2000000Y21230000D03*
X2000000Y19960000D03*
X2000000Y18690000D03*
X2000000Y17420000D03*
X12000000Y17420000D03*
X12000000Y18690000D03*
X12000000Y19960000D03*
X12000000Y21230000D03*
X12000000Y22500000D03*
X12000000Y23770000D03*
X12000000Y25040000D03*
X12000000Y26310000D03*
X12000000Y27580000D03*
D12*
X-3555000Y14100000D03*
X-4825000Y14100000D03*
X-6095000Y14100000D03*
X-7365000Y14100000D03*
X-8635000Y14100000D03*
X-9905000Y14100000D03*
X-11175000Y14100000D03*
X-12445000Y14100000D03*
X-12445000Y8900000D03*
X-11175000Y8900000D03*
X-9905000Y8900000D03*
X-8635000Y8900000D03*
X-7365000Y8900000D03*
X-6095000Y8900000D03*
X-4825000Y8900000D03*
X-3555000Y8900000D03*
D13*
X-12000000Y27580000D03*
X-12000000Y26310000D03*
X-12000000Y25040000D03*
X-12000000Y23770000D03*
X-12000000Y22500000D03*
X-12000000Y21230000D03*
X-12000000Y19960000D03*
X-12000000Y18690000D03*
X-12000000Y17420000D03*
X-2000000Y17420000D03*
X-2000000Y18690000D03*
X-2000000Y19960000D03*
X-2000000Y21230000D03*
X-2000000Y22500000D03*
X-2000000Y23770000D03*
X-2000000Y25040000D03*
X-2000000Y26310000D03*
X-2000000Y27580000D03*
D12*
X-17555000Y14100000D03*
X-18825000Y14100000D03*
X-20095000Y14100000D03*
X-21365000Y14100000D03*
X-22635000Y14100000D03*
X-23905000Y14100000D03*
X-25175000Y14100000D03*
X-26445000Y14100000D03*
X-26445000Y8900000D03*
X-25175000Y8900000D03*
X-23905000Y8900000D03*
X-22635000Y8900000D03*
X-21365000Y8900000D03*
X-20095000Y8900000D03*
X-18825000Y8900000D03*
X-17555000Y8900000D03*
D13*
X-26000000Y27580000D03*
X-26000000Y26310000D03*
X-26000000Y25040000D03*
X-26000000Y23770000D03*
X-26000000Y22500000D03*
X-26000000Y21230000D03*
X-26000000Y19960000D03*
X-26000000Y18690000D03*
X-26000000Y17420000D03*
X-16000000Y17420000D03*
X-16000000Y18690000D03*
X-16000000Y19960000D03*
X-16000000Y21230000D03*
X-16000000Y22500000D03*
X-16000000Y23770000D03*
X-16000000Y25040000D03*
X-16000000Y26310000D03*
X-16000000Y27580000D03*
D11*
X12500000Y10550000D03*
X12500000Y8450000D03*
X-15500000Y10550000D03*
X-15500000Y8450000D03*
D14*
X10000000Y1000000D03*
D11*
X13000000Y-2050000D03*
X13000000Y50000D03*
X13000000Y4050000D03*
X13000000Y1950000D03*
D14*
X-35050000Y2000000D03*
X-32950000Y2000000D03*
X-28950000Y2000000D03*
X-31050000Y2000000D03*
D11*
X-29000000Y-13050000D03*
X-29000000Y-10950000D03*
X-27000000Y-10950000D03*
X-27000000Y-13050000D03*
X-25000000Y-13050000D03*
X-25000000Y-10950000D03*
X-23000000Y-13050000D03*
X-23000000Y-10950000D03*
X-21000000Y-10950000D03*
X-21000000Y-13050000D03*
X-19000000Y-13050000D03*
X-19000000Y-10950000D03*
X-29000000Y-6950000D03*
X-29000000Y-9050000D03*
X-27000000Y-6950000D03*
X-27000000Y-9050000D03*
X-25000000Y-6950000D03*
X-25000000Y-9050000D03*
X-23000000Y-6950000D03*
X-23000000Y-9050000D03*
X-21000000Y-6950000D03*
X-21000000Y-9050000D03*
X-19000000Y-6950000D03*
X-19000000Y-9050000D03*
D15*
X29700000Y-11000000D03*
X22300000Y-11000000D03*
D16*
X4615000Y4500000D03*
X-615000Y4500000D03*
X-3385000Y4500000D03*
X-8615000Y4500000D03*
D17*
X12635000Y-6000000D03*
X9365000Y-6000000D03*
D14*
X-15050000Y-4000000D03*
X-12950000Y-4000000D03*
D10*
G36*
X-21202081Y5944722D02*
X-20494974Y5237615D01*
X-20777817Y4954772D01*
X-21484924Y5661879D01*
X-21202081Y5944722D01*
X-21202081Y5944722D01*
G37*
G36*
X-21767767Y5379037D02*
X-21060660Y4671930D01*
X-21343503Y4389087D01*
X-22050610Y5096194D01*
X-21767767Y5379037D01*
X-21767767Y5379037D01*
G37*
G36*
X-22333452Y4813352D02*
X-21626345Y4106245D01*
X-21909188Y3823402D01*
X-22616295Y4530509D01*
X-22333452Y4813352D01*
X-22333452Y4813352D01*
G37*
G36*
X-22899138Y4247666D02*
X-22192031Y3540559D01*
X-22474874Y3257716D01*
X-23181981Y3964823D01*
X-22899138Y4247666D01*
X-22899138Y4247666D01*
G37*
G36*
X-23464823Y3681981D02*
X-22757716Y2974874D01*
X-23040559Y2692031D01*
X-23747666Y3399138D01*
X-23464823Y3681981D01*
X-23464823Y3681981D01*
G37*
G36*
X-24030509Y3116295D02*
X-23323402Y2409188D01*
X-23606245Y2126345D01*
X-24313352Y2833452D01*
X-24030509Y3116295D01*
X-24030509Y3116295D01*
G37*
G36*
X-24596194Y2550610D02*
X-23889087Y1843503D01*
X-24171930Y1560660D01*
X-24879037Y2267767D01*
X-24596194Y2550610D01*
X-24596194Y2550610D01*
G37*
G36*
X-25161879Y1984924D02*
X-24454772Y1277817D01*
X-24737615Y994974D01*
X-25444722Y1702081D01*
X-25161879Y1984924D01*
X-25161879Y1984924D01*
G37*
G36*
X-24737615Y5026D02*
X-24454772Y-277817D01*
X-25161879Y-984924D01*
X-25444722Y-702081D01*
X-24737615Y5026D01*
X-24737615Y5026D01*
G37*
G36*
X-24171930Y-560660D02*
X-23889087Y-843503D01*
X-24596194Y-1550610D01*
X-24879037Y-1267767D01*
X-24171930Y-560660D01*
X-24171930Y-560660D01*
G37*
G36*
X-23606245Y-1126345D02*
X-23323402Y-1409188D01*
X-24030509Y-2116295D01*
X-24313352Y-1833452D01*
X-23606245Y-1126345D01*
X-23606245Y-1126345D01*
G37*
G36*
X-23040559Y-1692031D02*
X-22757716Y-1974874D01*
X-23464823Y-2681981D01*
X-23747666Y-2399138D01*
X-23040559Y-1692031D01*
X-23040559Y-1692031D01*
G37*
G36*
X-22474874Y-2257716D02*
X-22192031Y-2540559D01*
X-22899138Y-3247666D01*
X-23181981Y-2964823D01*
X-22474874Y-2257716D01*
X-22474874Y-2257716D01*
G37*
G36*
X-21909188Y-2823402D02*
X-21626345Y-3106245D01*
X-22333452Y-3813352D01*
X-22616295Y-3530509D01*
X-21909188Y-2823402D01*
X-21909188Y-2823402D01*
G37*
G36*
X-21343503Y-3389087D02*
X-21060660Y-3671930D01*
X-21767767Y-4379037D01*
X-22050610Y-4096194D01*
X-21343503Y-3389087D01*
X-21343503Y-3389087D01*
G37*
G36*
X-20777817Y-3954772D02*
X-20494974Y-4237615D01*
X-21202081Y-4944722D01*
X-21484924Y-4661879D01*
X-20777817Y-3954772D01*
X-20777817Y-3954772D01*
G37*
G36*
X-19222183Y-3954772D02*
X-18515076Y-4661879D01*
X-18797919Y-4944722D01*
X-19505026Y-4237615D01*
X-19222183Y-3954772D01*
X-19222183Y-3954772D01*
G37*
G36*
X-18656497Y-3389087D02*
X-17949390Y-4096194D01*
X-18232233Y-4379037D01*
X-18939340Y-3671930D01*
X-18656497Y-3389087D01*
X-18656497Y-3389087D01*
G37*
G36*
X-18090812Y-2823402D02*
X-17383705Y-3530509D01*
X-17666548Y-3813352D01*
X-18373655Y-3106245D01*
X-18090812Y-2823402D01*
X-18090812Y-2823402D01*
G37*
G36*
X-17525126Y-2257716D02*
X-16818019Y-2964823D01*
X-17100862Y-3247666D01*
X-17807969Y-2540559D01*
X-17525126Y-2257716D01*
X-17525126Y-2257716D01*
G37*
G36*
X-16959441Y-1692031D02*
X-16252334Y-2399138D01*
X-16535177Y-2681981D01*
X-17242284Y-1974874D01*
X-16959441Y-1692031D01*
X-16959441Y-1692031D01*
G37*
G36*
X-16393755Y-1126345D02*
X-15686648Y-1833452D01*
X-15969491Y-2116295D01*
X-16676598Y-1409188D01*
X-16393755Y-1126345D01*
X-16393755Y-1126345D01*
G37*
G36*
X-15828070Y-560660D02*
X-15120963Y-1267767D01*
X-15403806Y-1550610D01*
X-16110913Y-843503D01*
X-15828070Y-560660D01*
X-15828070Y-560660D01*
G37*
G36*
X-15262385Y5026D02*
X-14555278Y-702081D01*
X-14838121Y-984924D01*
X-15545228Y-277817D01*
X-15262385Y5026D01*
X-15262385Y5026D01*
G37*
G36*
X-14838121Y1984924D02*
X-14555278Y1702081D01*
X-15262385Y994974D01*
X-15545228Y1277817D01*
X-14838121Y1984924D01*
X-14838121Y1984924D01*
G37*
G36*
X-15403806Y2550610D02*
X-15120963Y2267767D01*
X-15828070Y1560660D01*
X-16110913Y1843503D01*
X-15403806Y2550610D01*
X-15403806Y2550610D01*
G37*
G36*
X-15969491Y3116295D02*
X-15686648Y2833452D01*
X-16393755Y2126345D01*
X-16676598Y2409188D01*
X-15969491Y3116295D01*
X-15969491Y3116295D01*
G37*
G36*
X-16535177Y3681981D02*
X-16252334Y3399138D01*
X-16959441Y2692031D01*
X-17242284Y2974874D01*
X-16535177Y3681981D01*
X-16535177Y3681981D01*
G37*
G36*
X-17100862Y4247666D02*
X-16818019Y3964823D01*
X-17525126Y3257716D01*
X-17807969Y3540559D01*
X-17100862Y4247666D01*
X-17100862Y4247666D01*
G37*
G36*
X-17666548Y4813352D02*
X-17383705Y4530509D01*
X-18090812Y3823402D01*
X-18373655Y4106245D01*
X-17666548Y4813352D01*
X-17666548Y4813352D01*
G37*
G36*
X-18232233Y5379037D02*
X-17949390Y5096194D01*
X-18656497Y4389087D01*
X-18939340Y4671930D01*
X-18232233Y5379037D01*
X-18232233Y5379037D01*
G37*
G36*
X-18797919Y5944722D02*
X-18515076Y5661879D01*
X-19222183Y4954772D01*
X-19505026Y5237615D01*
X-18797919Y5944722D01*
X-18797919Y5944722D01*
G37*
D11*
X-13000000Y950000D03*
X-13000000Y3050000D03*
X-11000000Y950000D03*
X-11000000Y3050000D03*
D15*
X18700000Y-11000000D03*
X11300000Y-11000000D03*
D11*
X-500000Y-2050000D03*
X-500000Y50000D03*
M02*
