G04 #@! TF.FileFunction,Legend,Bot*
%FSLAX46Y46*%
G04 Gerber Fmt 4.6, Leading zero omitted, Abs format (unit mm)*
G04 Created by KiCad (PCBNEW (2015-08-26 BZR 6129, Git 2e41367)-product) date 17-08-10 10:08:59 AM*
%MOMM*%
G01*
G04 APERTURE LIST*
%ADD10C,0.100000*%
%ADD11C,0.200000*%
%ADD12C,0.150000*%
%ADD13C,0.300000*%
G04 APERTURE END LIST*
D10*
D11*
X-21000000Y-11000000D02*
X-21000000Y-12000000D01*
X-22000000Y-12000000D02*
X-22000000Y-11000000D01*
X-24000000Y-12000000D02*
X-22000000Y-12000000D01*
X-24000000Y-13000000D02*
X-24000000Y-12000000D01*
X-22000000Y-13000000D02*
X-24000000Y-13000000D01*
X-27000000Y-13000000D02*
X-29000000Y-13000000D01*
X-27000000Y-12000000D02*
X-27000000Y-13000000D01*
X-29000000Y-12000000D02*
X-27000000Y-12000000D01*
X-26000000Y-11000000D02*
X-27000000Y-11000000D01*
X-26000000Y-13000000D02*
X-26000000Y-11000000D01*
X-25000000Y-13000000D02*
X-26000000Y-13000000D01*
X-25000000Y-11000000D02*
X-25000000Y-13000000D01*
X-22000000Y-11000000D02*
X-25000000Y-11000000D01*
X-24000000Y-10000000D02*
X-24000000Y-11000000D01*
X-27000000Y-10000000D02*
X-22000000Y-10000000D01*
X-27000000Y-11000000D02*
X-27000000Y-10000000D01*
X-30000000Y-10000000D02*
X-28000000Y-10000000D01*
X-30000000Y-11000000D02*
X-30000000Y-10000000D01*
X-28000000Y-11000000D02*
X-30000000Y-11000000D01*
X-29000000Y-11000000D02*
G75*
G03X-29000000Y-13000000I0J-1000000D01*
G01*
X-28000000Y-12000000D02*
G75*
G03X-28000000Y-10000000I0J1000000D01*
G01*
X-22000000Y-13000000D02*
G75*
G03X-21000000Y-12000000I0J1000000D01*
G01*
X-21000000Y-11000000D02*
G75*
G03X-22000000Y-10000000I-1000000J0D01*
G01*
D12*
X30809524Y-13166667D02*
X30333333Y-13166667D01*
X30904762Y-13452381D02*
X30571429Y-12452381D01*
X30238095Y-13452381D01*
X29476190Y-12785714D02*
X29476190Y-13452381D01*
X29904762Y-12785714D02*
X29904762Y-13309524D01*
X29857143Y-13404762D01*
X29761905Y-13452381D01*
X29619047Y-13452381D01*
X29523809Y-13404762D01*
X29476190Y-13357143D01*
X28571428Y-12785714D02*
X28571428Y-13595238D01*
X28619047Y-13690476D01*
X28666666Y-13738095D01*
X28761905Y-13785714D01*
X28904762Y-13785714D01*
X29000000Y-13738095D01*
X28571428Y-13404762D02*
X28666666Y-13452381D01*
X28857143Y-13452381D01*
X28952381Y-13404762D01*
X29000000Y-13357143D01*
X29047619Y-13261905D01*
X29047619Y-12976190D01*
X29000000Y-12880952D01*
X28952381Y-12833333D01*
X28857143Y-12785714D01*
X28666666Y-12785714D01*
X28571428Y-12833333D01*
X27666666Y-12785714D02*
X27666666Y-13452381D01*
X28095238Y-12785714D02*
X28095238Y-13309524D01*
X28047619Y-13404762D01*
X27952381Y-13452381D01*
X27809523Y-13452381D01*
X27714285Y-13404762D01*
X27666666Y-13357143D01*
X27238095Y-13404762D02*
X27142857Y-13452381D01*
X26952381Y-13452381D01*
X26857142Y-13404762D01*
X26809523Y-13309524D01*
X26809523Y-13261905D01*
X26857142Y-13166667D01*
X26952381Y-13119048D01*
X27095238Y-13119048D01*
X27190476Y-13071429D01*
X27238095Y-12976190D01*
X27238095Y-12928571D01*
X27190476Y-12833333D01*
X27095238Y-12785714D01*
X26952381Y-12785714D01*
X26857142Y-12833333D01*
X26523809Y-12785714D02*
X26142857Y-12785714D01*
X26380952Y-12452381D02*
X26380952Y-13309524D01*
X26333333Y-13404762D01*
X26238095Y-13452381D01*
X26142857Y-13452381D01*
X25095237Y-12547619D02*
X25047618Y-12500000D01*
X24952380Y-12452381D01*
X24714284Y-12452381D01*
X24619046Y-12500000D01*
X24571427Y-12547619D01*
X24523808Y-12642857D01*
X24523808Y-12738095D01*
X24571427Y-12880952D01*
X25142856Y-13452381D01*
X24523808Y-13452381D01*
X23904761Y-12452381D02*
X23809522Y-12452381D01*
X23714284Y-12500000D01*
X23666665Y-12547619D01*
X23619046Y-12642857D01*
X23571427Y-12833333D01*
X23571427Y-13071429D01*
X23619046Y-13261905D01*
X23666665Y-13357143D01*
X23714284Y-13404762D01*
X23809522Y-13452381D01*
X23904761Y-13452381D01*
X23999999Y-13404762D01*
X24047618Y-13357143D01*
X24095237Y-13261905D01*
X24142856Y-13071429D01*
X24142856Y-12833333D01*
X24095237Y-12642857D01*
X24047618Y-12547619D01*
X23999999Y-12500000D01*
X23904761Y-12452381D01*
X22619046Y-13452381D02*
X23190475Y-13452381D01*
X22904761Y-13452381D02*
X22904761Y-12452381D01*
X22999999Y-12595238D01*
X23095237Y-12690476D01*
X23190475Y-12738095D01*
X22285713Y-12452381D02*
X21619046Y-12452381D01*
X22047618Y-13452381D01*
D13*
X29785714Y-11535714D02*
X29857143Y-11607143D01*
X30071429Y-11678571D01*
X30214286Y-11678571D01*
X30428571Y-11607143D01*
X30571429Y-11464286D01*
X30642857Y-11321429D01*
X30714286Y-11035714D01*
X30714286Y-10821429D01*
X30642857Y-10535714D01*
X30571429Y-10392857D01*
X30428571Y-10250000D01*
X30214286Y-10178571D01*
X30071429Y-10178571D01*
X29857143Y-10250000D01*
X29785714Y-10321429D01*
X28928571Y-11678571D02*
X29071429Y-11607143D01*
X29142857Y-11535714D01*
X29214286Y-11392857D01*
X29214286Y-10964286D01*
X29142857Y-10821429D01*
X29071429Y-10750000D01*
X28928571Y-10678571D01*
X28714286Y-10678571D01*
X28571429Y-10750000D01*
X28500000Y-10821429D01*
X28428571Y-10964286D01*
X28428571Y-11392857D01*
X28500000Y-11535714D01*
X28571429Y-11607143D01*
X28714286Y-11678571D01*
X28928571Y-11678571D01*
X27785714Y-10678571D02*
X27785714Y-11678571D01*
X27785714Y-10821429D02*
X27714286Y-10750000D01*
X27571428Y-10678571D01*
X27357143Y-10678571D01*
X27214286Y-10750000D01*
X27142857Y-10892857D01*
X27142857Y-11678571D01*
X26500000Y-11607143D02*
X26357143Y-11678571D01*
X26071428Y-11678571D01*
X25928571Y-11607143D01*
X25857143Y-11464286D01*
X25857143Y-11392857D01*
X25928571Y-11250000D01*
X26071428Y-11178571D01*
X26285714Y-11178571D01*
X26428571Y-11107143D01*
X26500000Y-10964286D01*
X26500000Y-10892857D01*
X26428571Y-10750000D01*
X26285714Y-10678571D01*
X26071428Y-10678571D01*
X25928571Y-10750000D01*
X24999999Y-11678571D02*
X25142857Y-11607143D01*
X25214285Y-11535714D01*
X25285714Y-11392857D01*
X25285714Y-10964286D01*
X25214285Y-10821429D01*
X25142857Y-10750000D01*
X24999999Y-10678571D01*
X24785714Y-10678571D01*
X24642857Y-10750000D01*
X24571428Y-10821429D01*
X24499999Y-10964286D01*
X24499999Y-11392857D01*
X24571428Y-11535714D01*
X24642857Y-11607143D01*
X24785714Y-11678571D01*
X24999999Y-11678571D01*
X23642856Y-11678571D02*
X23785714Y-11607143D01*
X23857142Y-11464286D01*
X23857142Y-10178571D01*
X22500000Y-11607143D02*
X22642857Y-11678571D01*
X22928571Y-11678571D01*
X23071428Y-11607143D01*
X23142857Y-11464286D01*
X23142857Y-10892857D01*
X23071428Y-10750000D01*
X22928571Y-10678571D01*
X22642857Y-10678571D01*
X22500000Y-10750000D01*
X22428571Y-10892857D01*
X22428571Y-11035714D01*
X23142857Y-11178571D01*
X19928571Y-11678571D02*
X20642857Y-11678571D01*
X20642857Y-10178571D01*
X19428571Y-11678571D02*
X19428571Y-10678571D01*
X19428571Y-10178571D02*
X19500000Y-10250000D01*
X19428571Y-10321429D01*
X19357143Y-10250000D01*
X19428571Y-10178571D01*
X19428571Y-10321429D01*
X18071428Y-10678571D02*
X18071428Y-11892857D01*
X18142857Y-12035714D01*
X18214285Y-12107143D01*
X18357142Y-12178571D01*
X18571428Y-12178571D01*
X18714285Y-12107143D01*
X18071428Y-11607143D02*
X18214285Y-11678571D01*
X18499999Y-11678571D01*
X18642857Y-11607143D01*
X18714285Y-11535714D01*
X18785714Y-11392857D01*
X18785714Y-10964286D01*
X18714285Y-10821429D01*
X18642857Y-10750000D01*
X18499999Y-10678571D01*
X18214285Y-10678571D01*
X18071428Y-10750000D01*
X17357142Y-11678571D02*
X17357142Y-10178571D01*
X16714285Y-11678571D02*
X16714285Y-10892857D01*
X16785714Y-10750000D01*
X16928571Y-10678571D01*
X17142856Y-10678571D01*
X17285714Y-10750000D01*
X17357142Y-10821429D01*
X16214285Y-10678571D02*
X15642856Y-10678571D01*
X15999999Y-10178571D02*
X15999999Y-11464286D01*
X15928571Y-11607143D01*
X15785713Y-11678571D01*
X15642856Y-11678571D01*
X15142856Y-11678571D02*
X15142856Y-10678571D01*
X15142856Y-10178571D02*
X15214285Y-10250000D01*
X15142856Y-10321429D01*
X15071428Y-10250000D01*
X15142856Y-10178571D01*
X15142856Y-10321429D01*
X14428570Y-10678571D02*
X14428570Y-11678571D01*
X14428570Y-10821429D02*
X14357142Y-10750000D01*
X14214284Y-10678571D01*
X13999999Y-10678571D01*
X13857142Y-10750000D01*
X13785713Y-10892857D01*
X13785713Y-11678571D01*
X12428570Y-10678571D02*
X12428570Y-11892857D01*
X12499999Y-12035714D01*
X12571427Y-12107143D01*
X12714284Y-12178571D01*
X12928570Y-12178571D01*
X13071427Y-12107143D01*
X12428570Y-11607143D02*
X12571427Y-11678571D01*
X12857141Y-11678571D01*
X12999999Y-11607143D01*
X13071427Y-11535714D01*
X13142856Y-11392857D01*
X13142856Y-10964286D01*
X13071427Y-10821429D01*
X12999999Y-10750000D01*
X12857141Y-10678571D01*
X12571427Y-10678571D01*
X12428570Y-10750000D01*
X10714284Y-10678571D02*
X10357141Y-11678571D01*
X9999999Y-10678571D01*
X9499999Y-10321429D02*
X9428570Y-10250000D01*
X9285713Y-10178571D01*
X8928570Y-10178571D01*
X8785713Y-10250000D01*
X8714284Y-10321429D01*
X8642856Y-10464286D01*
X8642856Y-10607143D01*
X8714284Y-10821429D01*
X9571427Y-11678571D01*
X8642856Y-11678571D01*
M02*
